<svg
    xmlns="http://www.w3.org/2000/svg"
    viewBox="0 0 24 24"
    id="vector">
    <path
        id="path"
        d="M 12 12 M 8.8 12 C 8.8 11.152 9.137 10.337 9.737 9.737 C 10.337 9.137 11.152 8.8 12 8.8 C 12.848 8.8 13.663 9.137 14.263 9.737 C 14.863 10.337 15.2 11.152 15.2 12 C 15.2 12.848 14.863 13.663 14.263 14.263 C 13.663 14.863 12.848 15.2 12 15.2 C 11.152 15.2 10.337 14.863 9.737 14.263 C 9.137 13.663 8.8 12.848 8.8 12"
        fill="#000000"/>
    <path
        id="path_1"
        d="M 9 2 L 7.17 4 L 4 4 C 2.9 4 2 4.9 2 6 L 2 18 C 2 19.1 2.9 20 4 20 L 20 20 C 21.1 20 22 19.1 22 18 L 22 6 C 22 4.9 21.1 4 20 4 L 16.83 4 L 15 2 L 9 2 Z M 12 17 C 9.24 17 7 14.76 7 12 C 7 9.24 9.24 7 12 7 C 14.76 7 17 9.24 17 12 C 17 14.76 14.76 17 12 17 Z"
        fill="#000000"/>
</svg>
